PathFileType	4	(X/Y/Z)	OpenSim_Sub03_CSStiffKnee_Magnet.trc
DataRate	CameraRate	NumFrames	NumMarkers	Units	OrigDataRate	OrigDataStartFrame	OrigNumFrames
100	100	13	8	m	100	2728	3637
Frame#	Time	torso_imu_offset_imu	pelvis_imu_offset_imu	tibia_r_imu_offset_imu	femur_r_imu_offset_imu	tibia_l_imu_offset_imu	femur_l_imu_offset_imu	toes_r_imu_offset_imu	toes_l_imu_offset_imu
				X1	Y1	Z1	X2	Y2	Z2	X3	Y3	Z3	X4	Y4	Z4	X5	Y5	Z5	X6	Y6	Z6	X7	Y7	Z7	X8		Y8	Z8	

2728	27.27000000	-0.88476600	-0.24267600	0.23974600	-0.70434600	0.25610400	-0.60766600	-0.34472700	-0.75122100	-0.13940400	-0.72802700	-0.49316400	-0.20385700	-0.64648400	0.45141600	0.27758800	-0.68188500	0.35961900	0.36816400	-0.73730500	-0.49243200	-0.21948200	-0.77343800	-0.17480500	-0.29614300
2729	27.28000000	-0.88671900	-0.24487300	0.24414100	-0.69995100	0.25195300	-0.61206100	-0.36401400	-0.74072300	-0.14868200	-0.73046900	-0.48266600	-0.20190400	-0.64428700	0.45361300	0.27978500	-0.67065400	0.35327100	0.37060500	-0.72949200	-0.47778300	-0.25293000	-0.77124000	-0.17480500	-0.29394500
2730	27.29000000	-0.88476600	-0.24487300	0.25317400	-0.70214800	0.25195300	-0.60986300	-0.39160200	-0.72412100	-0.15161100	-0.73266600	-0.47876000	-0.19067400	-0.64453100	0.46020500	0.27710000	-0.66870100	0.36206100	0.36816400	-0.72168000	-0.45507800	-0.27832000	-0.77319300	-0.17724600	-0.28710900
2731	27.30000000	-0.88281200	-0.23437500	0.25268600	-0.69775400	0.25415000	-0.61694300	-0.41088900	-0.71167000	-0.15429700	-0.73925800	-0.46826200	-0.19335900	-0.63549800	0.46460000	0.27905300	-0.66894500	0.36425800	0.37255900	-0.71777300	-0.44067400	-0.30151400	-0.78247100	-0.17065400	-0.28491200
2732	27.31000000	-0.88501000	-0.23437500	0.25708000	-0.69360400	0.25415000	-0.61694300	-0.43457000	-0.69506800	-0.15918000	-0.74340800	-0.46630900	-0.18432600	-0.62915000	0.47119100	0.27856400	-0.66918900	0.37280300	0.36132800	-0.71386700	-0.42627000	-0.32666000	-0.78466800	-0.17504900	-0.28027300
2733	27.32000000	-0.87841800	-0.24072300	0.25952100	-0.69140600	0.25634800	-0.61914100	-0.45996100	-0.68237300	-0.15966800	-0.74145500	-0.46215800	-0.19360400	-0.63134800	0.47558600	0.27612300	-0.66479500	0.37524400	0.36792000	-0.69165000	-0.40136700	-0.34350600	-0.78222700	-0.17944300	-0.26464800
2734	27.33000000	-0.88061500	-0.23632800	0.25708000	-0.69140600	0.25000000	-0.62133800	-0.47753900	-0.66162100	-0.16943400	-0.74389600	-0.45605500	-0.18920900	-0.62939500	0.48437500	0.27807600	-0.66284200	0.38378900	0.36108400	-0.68798800	-0.37866200	-0.36254900	-0.78466800	-0.17285200	-0.27807600
2735	27.34000000	-0.88305700	-0.23217800	0.25903300	-0.68725600	0.25634800	-0.62866200	-0.50122100	-0.64086900	-0.15673800	-0.74780300	-0.45800800	-0.18481400	-0.62475600	0.47998000	0.27368200	-0.66064500	0.38378900	0.36108400	-0.68237300	-0.35595700	-0.37963900	-0.78906200	-0.17309600	-0.26684600
2736	27.35000000	-0.87646500	-0.23632800	0.26367200	-0.68725600	0.25854500	-0.63085900	-0.52880900	-0.62622100	-0.15502900	-0.74804700	-0.45605500	-0.18237300	-0.62060500	0.49096700	0.27758800	-0.66088900	0.39257800	0.36108400	-0.67456100	-0.33129900	-0.39038100	-0.79345700	-0.17749000	-0.26025400
2737	27.36000000	-0.88085900	-0.22802700	0.26782200	-0.68505900	0.25634800	-0.63549800	-0.55029300	-0.60961900	-0.15332000	-0.74829100	-0.44775400	-0.18969700	-0.61840800	0.49096700	0.27758800	-0.65258800	0.40136700	0.36328100	-0.66088900	-0.30273400	-0.39502000	-0.79565400	-0.17749000	-0.25781200
2738	27.37000000	-0.88110400	-0.22363300	0.27197300	-0.68042000	0.24585000	-0.63525400	-0.56347700	-0.59277300	-0.14282200	-0.74609400	-0.44970700	-0.18261700	-0.61669900	0.50415000	0.27685500	-0.65478500	0.40356400	0.36328100	-0.66772500	-0.27612300	-0.40161100	-0.79565400	-0.17749000	-0.24658200
2739	27.38000000	-0.87890600	-0.22168000	0.27417000	-0.67822300	0.24804700	-0.64453100	-0.58496100	-0.57836900	-0.14111300	-0.74804700	-0.45385700	-0.18261700	-0.60986300	0.50415000	0.27685500	-0.64624000	0.41015600	0.35864300	-0.66406200	-0.25366200	-0.41040000	-0.79101600	-0.17968800	-0.24438500
2740	27.39000000	-0.88330100	-0.22168000	0.27636700	-0.67602500	0.24389600	-0.64428700	-0.60229500	-0.55737300	-0.13061500	-0.74389600	-0.44970700	-0.18505900	-0.60766600	0.50634800	0.27661100	-0.65063500	0.41235400	0.36303700	-0.66479500	-0.22900400	-0.42114300	-0.79101600	-0.18188500	-0.23535200
